<?xml version="1.0" standalone="no"?><!DOCTYPE svg PUBLIC "-//W3C//DTD SVG 1.1//EN" "http://www.w3.org/Graphics/SVG/1.1/DTD/svg11.dtd"><svg t="1657810575854" class="icon" viewBox="0 0 1024 1024" version="1.1" xmlns="http://www.w3.org/2000/svg" p-id="762" xmlns:xlink="http://www.w3.org/1999/xlink" width="200" height="200"><defs><style type="text/css">@font-face { font-family: feedback-iconfont; src: url("//at.alicdn.com/t/font_1031158_u69w8yhxdu.woff2?t=1630033759944") format("woff2"), url("//at.alicdn.com/t/font_1031158_u69w8yhxdu.woff?t=1630033759944") format("woff"), url("//at.alicdn.com/t/font_1031158_u69w8yhxdu.ttf?t=1630033759944") format("truetype"); }
</style></defs><path d="M75.533227 75.093333A242.346667 242.346667 0 0 1 247.479893 0h537.6c58.453333 0 113.066667 25.6 163.413334 75.093333A231.68 231.68 0 0 1 1024.013227 243.2v544.853333c0 57.173333-23.893333 110.08-71.68 159.146667a246.186667 246.186667 0 0 1-173.653334 76.8H250.46656a268.8 268.8 0 0 1-174.933333-66.986667C29.453227 915.2 4.279893 854.613333 0.013227 773.546667V244.48a222.293333 222.293333 0 0 1 75.52-169.386667z m266.666666 354.133334l338.346667 429.226666h90.453333c20.906667-2.56 37.546667-8.533333 49.92-18.346666 12.8-9.813333 21.333333-23.893333 27.306667-42.666667v-210.773333c3.413333-40.533333 28.586667-65.706667 75.52-74.666667-46.933333-17.066667-72.106667-43.52-75.52-79.36V231.253333c-5.12-18.773333-14.08-34.133333-27.306667-45.653333a78.08 78.08 0 0 0-46.506666-20.053333H682.679893v435.2L342.199893 165.12H247.053227c-23.893333 4.266667-41.386667 12.8-53.333334 25.6S174.093227 224 170.679893 251.733333v206.933334c-14.933333 29.44-38.4 46.933333-70.4 53.333333 36.266667 6.826667 59.733333 26.026667 70.4 58.026667v203.52c0.853333 23.466667 8.533333 42.666667 23.04 58.453333 14.08 15.36 29.866667 22.613333 46.933334 21.333333H341.34656l0.853333-424.106666z" p-id="763" fill="#82529d"></path></svg>